<?xml version="1.0" standalone="no"?>
<!DOCTYPE svg PUBLIC "-//W3C//DTD SVG 20010904//EN"
 "http://www.w3.org/TR/2001/REC-SVG-20010904/DTD/svg10.dtd">
<svg version="1.0" xmlns="http://www.w3.org/2000/svg"
 width="480.000000pt" height="480.000000pt" viewBox="0 0 480.000000 480.000000"
 preserveAspectRatio="xMidYMid meet">
<metadata>
Created by potrace 1.11, written by Peter Selinger 2001-2013
</metadata>
<g transform="translate(0.000000,480.000000) scale(0.100000,-0.100000)"
fill="#000000" stroke="none">
<path d="M733 2621 c-62 -45 -71 -74 -76 -253 l-4 -158 1700 0 c1696 0 1700 0
1733 21 66 41 74 66 74 253 l0 166 -1693 0 -1694 0 -40 -29z m3395 -145 c-4
-122 -7 -138 -29 -170 -13 -19 -35 -41 -49 -48 -20 -10 -344 -14 -1687 -16
l-1663 -2 0 137 c0 124 2 140 22 169 47 69 -105 63 1742 64 l1669 0 -5 -134z"/>
<path d="M834 2520 c-46 -18 -64 -57 -64 -136 0 -72 1 -74 24 -74 22 0 25 5
28 43 l3 42 103 3 102 3 0 64 0 65 -87 -1 c-49 0 -98 -4 -109 -9z m154 -57 c3
-22 1 -23 -82 -23 -83 0 -100 6 -73 28 18 15 47 20 102 19 44 -2 50 -5 53 -24z"/>
<path d="M1113 2520 c-40 -16 -63 -68 -63 -142 l0 -68 130 0 c128 0 130 0 130
23 0 22 -2 22 -105 19 l-105 -3 0 26 0 26 105 -3 c103 -3 105 -3 105 20 0 21
-3 22 -105 22 -58 0 -105 4 -105 9 0 25 37 36 121 36 86 0 89 1 89 23 0 21 -3
22 -87 21 -49 0 -98 -4 -110 -9z"/>
<path d="M1320 2420 l0 -110 99 0 c91 0 102 2 128 24 25 22 28 32 33 106 3 45
3 84 1 86 -2 2 -62 4 -133 4 l-128 0 0 -110z m218 14 c4 -67 -11 -79 -97 -79
l-66 0 -3 54 c-5 82 -4 82 85 79 l78 -3 3 -51z"/>
<path d="M1664 2520 c-46 -18 -64 -57 -64 -136 0 -72 1 -74 25 -74 23 0 25 4
25 45 0 44 1 45 33 45 23 0 50 -14 97 -50 58 -44 66 -47 78 -32 10 14 7 21
-25 49 l-38 34 32 -3 c18 -1 33 1 33 5 0 4 0 34 0 67 l0 60 -87 -1 c-49 0 -98
-4 -109 -9z m154 -57 c3 -22 1 -23 -82 -23 -83 0 -100 6 -73 28 16 14 53 20
107 18 39 -1 45 -4 48 -23z"/>
<path d="M1944 2514 c-42 -20 -54 -51 -54 -135 0 -67 1 -70 22 -67 18 2 22 10
22 43 l1 40 85 0 85 0 1 -40 c0 -33 4 -41 22 -43 22 -3 22 -1 22 107 l0 111
-87 0 c-59 0 -98 -6 -119 -16z m164 -51 c3 -22 1 -23 -82 -23 -83 0 -100 6
-73 28 18 15 47 20 102 19 44 -2 50 -5 53 -24z"/>
<path d="M2170 2420 l0 -110 90 0 c49 0 100 5 114 11 36 17 56 67 56 143 l0
66 -130 0 -130 0 0 -110z m218 18 c-7 -71 -30 -88 -114 -88 l-64 0 0 70 0 70
91 0 92 0 -5 -52z"/>
<path d="M2498 2515 c-40 -22 -48 -45 -48 -129 l0 -76 96 0 c92 0 97 1 124 28
30 30 44 88 38 152 l-3 35 -90 2 c-65 2 -98 -2 -117 -12z m162 -79 c0 -71 -19
-86 -107 -86 l-63 0 0 48 c0 75 17 89 118 91 l52 1 0 -54z"/>
<path d="M2774 2514 c-42 -20 -54 -51 -54 -134 l0 -70 130 0 c123 0 130 1 130
20 0 18 -8 20 -107 22 -105 3 -108 4 -111 27 -2 13 -1 39 3 57 5 29 11 35 46
44 23 6 69 10 103 9 56 -3 61 -1 64 19 3 21 0 22 -85 22 -59 0 -98 -6 -119
-16z"/>
<path d="M3043 2514 c-42 -21 -59 -66 -55 -143 l4 -61 88 0 c49 0 100 5 113
11 40 18 57 59 57 138 l0 71 -87 0 c-59 0 -98 -6 -120 -16z m161 -78 c-1 -69
-26 -88 -108 -84 l-61 3 -3 34 c-8 79 21 102 123 98 l50 -2 -1 -49z"/>
<path d="M3260 2420 l0 -110 95 0 c146 0 165 17 165 145 0 68 -2 75 -20 75
-18 0 -20 -7 -20 -75 0 -68 -2 -76 -24 -90 -17 -11 -42 -15 -83 -13 l-58 3 -3
88 c-3 85 -3 87 -27 87 l-25 0 0 -110z"/>
<path d="M3598 2523 c-21 -5 -43 -39 -56 -86 -9 -33 -8 -37 9 -37 29 0 33 3
35 28 4 31 22 52 46 52 18 0 19 -7 17 -82 -2 -78 -1 -83 19 -86 20 -3 21 1 24
85 l3 88 53 3 c44 3 52 6 52 23 0 18 -7 19 -92 18 -51 -1 -101 -3 -110 -6z"/>
<path d="M3843 2508 c-38 -27 -43 -42 -43 -130 l0 -68 98 0 c87 0 100 2 127
24 28 23 30 28 34 110 l3 86 -94 0 c-81 0 -98 -3 -125 -22z m175 -57 c8 -76
-23 -101 -124 -101 l-44 0 0 54 c0 72 18 86 115 83 49 -2 50 -3 53 -36z"/>
</g>
</svg>
