<?xml version="1.0" encoding="UTF-8"?><svg xmlns="http://www.w3.org/2000/svg" width="399" height="80"><rect width="100%" height="100%" fill="#ffffff" /><rect x="5" y="5" width="2" height="59" fill="black" /><rect x="7" y="5" width="2" height="59" fill="white" /><rect x="9" y="5" width="3" height="59" fill="black" /><rect x="12" y="5" width="3" height="59" fill="white" /><rect x="15" y="5" width="2" height="59" fill="black" /><rect x="17" y="5" width="2" height="59" fill="white" /><rect x="19" y="5" width="2" height="59" fill="black" /><rect x="21" y="5" width="2" height="59" fill="white" /><rect x="23" y="5" width="3" height="59" fill="black" /><rect x="26" y="5" width="2" height="59" fill="white" /><rect x="28" y="5" width="2" height="59" fill="black" /><rect x="30" y="5" width="2" height="59" fill="white" /><rect x="32" y="5" width="2" height="59" fill="black" /><rect x="34" y="5" width="3" height="59" fill="white" /><rect x="37" y="5" width="3" height="59" fill="black" /><rect x="40" y="5" width="2" height="59" fill="white" /><rect x="42" y="5" width="3" height="59" fill="black" /><rect x="45" y="5" width="2" height="59" fill="white" /><rect x="47" y="5" width="2" height="59" fill="black" /><rect x="49" y="5" width="2" height="59" fill="white" /><rect x="51" y="5" width="2" height="59" fill="black" /><rect x="53" y="5" width="2" height="59" fill="white" /><rect x="55" y="5" width="3" height="59" fill="black" /><rect x="58" y="5" width="3" height="59" fill="white" /><rect x="61" y="5" width="2" height="59" fill="black" /><rect x="63" y="5" width="2" height="59" fill="white" /><rect x="65" y="5" width="2" height="59" fill="black" /><rect x="67" y="5" width="2" height="59" fill="white" /><rect x="69" y="5" width="3" height="59" fill="black" /><rect x="72" y="5" width="2" height="59" fill="white" /><rect x="74" y="5" width="3" height="59" fill="black" /><rect x="77" y="5" width="2" height="59" fill="white" /><rect x="79" y="5" width="2" height="59" fill="black" /><rect x="81" y="5" width="3" height="59" fill="white" /><rect x="84" y="5" width="3" height="59" fill="black" /><rect x="87" y="5" width="2" height="59" fill="white" /><rect x="89" y="5" width="2" height="59" fill="black" /><rect x="91" y="5" width="2" height="59" fill="white" /><rect x="93" y="5" width="2" height="59" fill="black" /><rect x="95" y="5" width="2" height="59" fill="white" /><rect x="97" y="5" width="2" height="59" fill="black" /><rect x="99" y="5" width="2" height="59" fill="white" /><rect x="101" y="5" width="2" height="59" fill="black" /><rect x="103" y="5" width="3" height="59" fill="white" /><rect x="106" y="5" width="3" height="59" fill="black" /><rect x="109" y="5" width="2" height="59" fill="white" /><rect x="111" y="5" width="3" height="59" fill="black" /><rect x="114" y="5" width="2" height="59" fill="white" /><rect x="116" y="5" width="2" height="59" fill="black" /><rect x="118" y="5" width="2" height="59" fill="white" /><rect x="120" y="5" width="3" height="59" fill="black" /><rect x="123" y="5" width="2" height="59" fill="white" /><rect x="125" y="5" width="3" height="59" fill="black" /><rect x="128" y="5" width="3" height="59" fill="white" /><rect x="131" y="5" width="2" height="59" fill="black" /><rect x="133" y="5" width="2" height="59" fill="white" /><rect x="135" y="5" width="2" height="59" fill="black" /><rect x="137" y="5" width="2" height="59" fill="white" /><rect x="139" y="5" width="2" height="59" fill="black" /><rect x="141" y="5" width="2" height="59" fill="white" /><rect x="143" y="5" width="2" height="59" fill="black" /><rect x="145" y="5" width="2" height="59" fill="white" /><rect x="147" y="5" width="2" height="59" fill="black" /><rect x="149" y="5" width="3" height="59" fill="white" /><rect x="152" y="5" width="3" height="59" fill="black" /><rect x="155" y="5" width="2" height="59" fill="white" /><rect x="157" y="5" width="3" height="59" fill="black" /><rect x="160" y="5" width="2" height="59" fill="white" /><rect x="162" y="5" width="2" height="59" fill="black" /><rect x="164" y="5" width="2" height="59" fill="white" /><rect x="166" y="5" width="2" height="59" fill="black" /><rect x="168" y="5" width="2" height="59" fill="white" /><rect x="170" y="5" width="3" height="59" fill="black" /><rect x="173" y="5" width="3" height="59" fill="white" /><rect x="176" y="5" width="2" height="59" fill="black" /><rect x="178" y="5" width="2" height="59" fill="white" /><rect x="180" y="5" width="2" height="59" fill="black" /><rect x="182" y="5" width="2" height="59" fill="white" /><rect x="184" y="5" width="3" height="59" fill="black" /><rect x="187" y="5" width="2" height="59" fill="white" /><rect x="189" y="5" width="3" height="59" fill="black" /><rect x="192" y="5" width="2" height="59" fill="white" /><rect x="194" y="5" width="2" height="59" fill="black" /><rect x="196" y="5" width="3" height="59" fill="white" /><rect x="199" y="5" width="2" height="59" fill="black" /><rect x="201" y="5" width="2" height="59" fill="white" /><rect x="203" y="5" width="2" height="59" fill="black" /><rect x="205" y="5" width="2" height="59" fill="white" /><rect x="207" y="5" width="3" height="59" fill="black" /><rect x="210" y="5" width="2" height="59" fill="white" /><rect x="212" y="5" width="2" height="59" fill="black" /><rect x="214" y="5" width="2" height="59" fill="white" /><rect x="216" y="5" width="2" height="59" fill="black" /><rect x="218" y="5" width="3" height="59" fill="white" /><rect x="221" y="5" width="3" height="59" fill="black" /><rect x="224" y="5" width="2" height="59" fill="white" /><rect x="226" y="5" width="3" height="59" fill="black" /><rect x="229" y="5" width="2" height="59" fill="white" /><rect x="231" y="5" width="2" height="59" fill="black" /><rect x="233" y="5" width="2" height="59" fill="white" /><rect x="235" y="5" width="2" height="59" fill="black" /><rect x="237" y="5" width="2" height="59" fill="white" /><rect x="239" y="5" width="2" height="59" fill="black" /><rect x="241" y="5" width="3" height="59" fill="white" /><rect x="244" y="5" width="3" height="59" fill="black" /><rect x="247" y="5" width="2" height="59" fill="white" /><rect x="249" y="5" width="2" height="59" fill="black" /><rect x="251" y="5" width="2" height="59" fill="white" /><rect x="253" y="5" width="3" height="59" fill="black" /><rect x="256" y="5" width="2" height="59" fill="white" /><rect x="258" y="5" width="2" height="59" fill="black" /><rect x="260" y="5" width="2" height="59" fill="white" /><rect x="262" y="5" width="2" height="59" fill="black" /><rect x="264" y="5" width="3" height="59" fill="white" /><rect x="267" y="5" width="3" height="59" fill="black" /><rect x="270" y="5" width="2" height="59" fill="white" /><rect x="272" y="5" width="3" height="59" fill="black" /><rect x="275" y="5" width="2" height="59" fill="white" /><rect x="277" y="5" width="2" height="59" fill="black" /><rect x="279" y="5" width="2" height="59" fill="white" /><rect x="281" y="5" width="2" height="59" fill="black" /><rect x="283" y="5" width="2" height="59" fill="white" /><rect x="285" y="5" width="2" height="59" fill="black" /><rect x="287" y="5" width="3" height="59" fill="white" /><rect x="290" y="5" width="3" height="59" fill="black" /><rect x="293" y="5" width="2" height="59" fill="white" /><rect x="295" y="5" width="3" height="59" fill="black" /><rect x="298" y="5" width="2" height="59" fill="white" /><rect x="300" y="5" width="2" height="59" fill="black" /><rect x="302" y="5" width="2" height="59" fill="white" /><rect x="304" y="5" width="3" height="59" fill="black" /><rect x="307" y="5" width="2" height="59" fill="white" /><rect x="309" y="5" width="2" height="59" fill="black" /><rect x="311" y="5" width="3" height="59" fill="white" /><rect x="314" y="5" width="2" height="59" fill="black" /><rect x="316" y="5" width="2" height="59" fill="white" /><rect x="318" y="5" width="3" height="59" fill="black" /><rect x="321" y="5" width="2" height="59" fill="white" /><rect x="323" y="5" width="2" height="59" fill="black" /><rect x="325" y="5" width="2" height="59" fill="white" /><rect x="327" y="5" width="3" height="59" fill="black" /><rect x="330" y="5" width="2" height="59" fill="white" /><rect x="332" y="5" width="2" height="59" fill="black" /><rect x="334" y="5" width="3" height="59" fill="white" /><rect x="337" y="5" width="3" height="59" fill="black" /><rect x="340" y="5" width="2" height="59" fill="white" /><rect x="342" y="5" width="2" height="59" fill="black" /><rect x="344" y="5" width="2" height="59" fill="white" /><rect x="346" y="5" width="2" height="59" fill="black" /><rect x="348" y="5" width="2" height="59" fill="white" /><rect x="350" y="5" width="3" height="59" fill="black" /><rect x="353" y="5" width="2" height="59" fill="white" /><rect x="355" y="5" width="2" height="59" fill="black" /><rect x="357" y="5" width="3" height="59" fill="white" /><rect x="360" y="5" width="3" height="59" fill="black" /><rect x="363" y="5" width="2" height="59" fill="white" /><rect x="365" y="5" width="2" height="59" fill="black" /><rect x="367" y="5" width="2" height="59" fill="white" /><rect x="369" y="5" width="2" height="59" fill="black" /><rect x="371" y="5" width="2" height="59" fill="white" /><rect x="373" y="5" width="3" height="59" fill="black" /><rect x="376" y="5" width="2" height="59" fill="white" /><rect x="378" y="5" width="2" height="59" fill="black" /><rect x="380" y="5" width="3" height="59" fill="white" /><rect x="383" y="5" width="2" height="59" fill="black" /><rect x="385" y="5" width="2" height="59" fill="white" /><rect x="387" y="5" width="3" height="59" fill="black" /><rect x="390" y="5" width="2" height="59" fill="white" /><rect x="392" y="5" width="2" height="59" fill="black" /><text x="50%" y="80" font-size="15" text-anchor="middle" fill="black"> 2 0 2 5 0 3 0 2 1 0 4 0 0 8 5 5 8</text></svg>